<svg id="Layer_1" data-name="Layer 1" xmlns="http://www.w3.org/2000/svg" viewBox="0 0 25 21.219">
  <defs>
    <style>
      .cls-1 {
        fill: #f92181;
      }

      .cls-2 {
        fill: #e20baa;
      }

      .cls-3 {
        fill: #ff485e;
      }

      .cls-4 {
        fill: #ff8272;
      }
    </style>
  </defs>
  <g>
    <g>
      <path class="cls-1"
        d="M21.363,6.908H8.441a3.26,3.26,0,0,0-3.348,3.165s-.086,4.413.082,5.643A2.117,2.117,0,0,0,6.86,17.341c.12.033.279.105.279.268v5.22c0,.146.042.336-.219.265-2.893.115-5.507-2.3-6.379-4.941A22.606,22.606,0,0,1,0,12.405C.04,9.981-.157,7.286,1.426,5.226A7.343,7.343,0,0,1,7.042,1.9c2.743-.028,5.487,0,8.232,0a6.618,6.618,0,0,1,4.283,1.575A6.249,6.249,0,0,1,21.7,6.442C21.854,6.889,21.715,6.908,21.363,6.908Z"
        transform="translate(0 -1.891)" />
      <path class="cls-2"
        d="M25,13.834c0-3.168-2.722-4.33-5.614-4.33-1.807,0-3.68-.071-5.48.07a4.349,4.349,0,0,0-2.164.758,4.73,4.73,0,0,0-1.484,1.814,4.05,4.05,0,0,0-.367,1.566l0,5.041a3.976,3.976,0,0,0,2.727,3.963,2.109,2.109,0,0,0,.4.124,3.744,3.744,0,0,0,.945.1h6.476C22.952,22.876,25,21.528,25,18.685Zm-4.365,5.074H14.85a.883.883,0,0,1-1-.874V12.927c0-.769.383-1.323,1.2-1.313,0,0,3.31-.018,4.05,0a3.292,3.292,0,0,1,1.951.678A2.3,2.3,0,0,1,22,14.148v3.334A1.329,1.329,0,0,1,20.635,18.908Z"
        transform="translate(0 -1.891)" />
    </g>
    <g>
      <path class="cls-3"
        d="M18.23,13.054a.482.482,0,0,0-.287.45c.01.494,0,.988.022,1.48.032.574.05.576.6.672l.552.1a7.034,7.034,0,0,1-1.143,1.213c-.208.154-.151.337.115.282.6.009,1.191.016,1.786.013.53,0,.652-.11.661-.645.015-.772-.036-1.546,0-2.317A1.657,1.657,0,0,0,18.23,13.054Z"
        transform="translate(0 -1.891)" />
      <path class="cls-4"
        d="M17.491,13.034c0-.3-.221-.448-.523-.433s-.529.165-.538.473c-.02.605.023,1.21,0,1.815a.877.877,0,0,0,.578.888c.294.135.483.06.483-.287Z"
        transform="translate(0 -1.891)" />
    </g>
  </g>
</svg>