<svg id="Layer_1" data-name="Layer 1" xmlns="http://www.w3.org/2000/svg" viewBox="0 0 23.971 25">
  <defs>
    <style>
      .cls-1 {
        fill: #f92181;
      }

      .cls-2 {
        fill: #e20baa;
      }

      .cls-3 {
        fill: #ff485e;
      }

      .cls-4 {
        fill: #ff8272;
      }

      .cls-5 {
        fill: #5e0547;
      }
    </style>
  </defs>
  <g>
    <g>
      <path class="cls-1"
        d="M21,4.81H8.609A3.127,3.127,0,0,0,5.4,7.845s-.082,4.231.079,5.411a2.031,2.031,0,0,0,1.615,1.558c.115.031.268.1.268.257v5.005c0,.14.04.322-.21.254-2.774.11-5.281-2.2-6.117-4.737a21.71,21.71,0,0,1-.518-5.512C.553,7.757.364,5.173,1.882,3.2A7.041,7.041,0,0,1,7.266.013c2.631-.028,5.262,0,7.894,0a6.341,6.341,0,0,1,4.106,1.51A5.989,5.989,0,0,1,21.32,4.364C21.469,4.793,21.336,4.81,21,4.81Z"
        transform="translate(-0.515)" />
      <path class="cls-2"
        d="M24.485,11.451c0-3.037-2.61-4.151-5.382-4.151-1.733,0-3.529-.068-5.255.067a4.181,4.181,0,0,0-2.075.726,4.552,4.552,0,0,0-1.423,1.74,3.886,3.886,0,0,0-.352,1.5l0,4.834a3.813,3.813,0,0,0,2.615,3.8,1.989,1.989,0,0,0,.38.118,3.548,3.548,0,0,0,.906.1h6.209c2.41-.063,4.374-1.355,4.374-4.081ZM20.3,16.317H14.753a.847.847,0,0,1-.958-.838v-4.9c0-.737.368-1.269,1.153-1.259,0,0,3.174-.017,3.883,0a3.149,3.149,0,0,1,1.871.65,2.2,2.2,0,0,1,.906,1.78v3.2A1.274,1.274,0,0,1,20.3,16.317Z"
        transform="translate(-0.515)" />
    </g>
    <g>
      <path class="cls-3"
        d="M17.994,10.7a.46.46,0,0,0-.275.431c.01.474,0,.948.021,1.42.031.549.048.551.578.644.163.029.325.06.53.1a6.8,6.8,0,0,1-1.1,1.163c-.2.148-.144.323.111.27.57.009,1.142.016,1.712.013.509,0,.626-.105.634-.619.014-.739-.035-1.482,0-2.22A1.589,1.589,0,0,0,17.994,10.7Z"
        transform="translate(-0.515)" />
      <path class="cls-4"
        d="M17.286,10.684c0-.289-.212-.429-.5-.414s-.507.157-.516.453c-.019.58.022,1.16,0,1.74a.843.843,0,0,0,.555.852c.281.129.463.057.463-.276Z"
        transform="translate(-0.515)" />
    </g>
  </g>
  <g>
    <path class="cls-5"
      d="M.57,21.649a.048.048,0,0,1-.055-.055v-.626a.049.049,0,0,1,.055-.055h.78a.049.049,0,0,1,.055.055v.626a.049.049,0,0,1-.055.055Zm.005,3.307A.049.049,0,0,1,.52,24.9V22.072a.049.049,0,0,1,.055-.055h.769a.049.049,0,0,1,.055.055V24.9a.048.048,0,0,1-.055.055Z"
      transform="translate(-0.515)" />
    <path class="cls-5"
      d="M4.113,24.956h-.78c-.033,0-.05-.018-.05-.055V23.006a.607.607,0,0,0-.047-.277c-.031-.057-.105-.085-.222-.085a1.13,1.13,0,0,0-.124.005.4.4,0,0,0-.085.017c-.025,0-.038.02-.038.049V24.9c0,.037-.017.055-.05.055H1.943c-.03,0-.044-.018-.044-.055V22.133a.051.051,0,0,1,.044-.055q.093-.016.228-.036c.089-.013.185-.024.285-.033l.311-.025c.106-.007.207-.011.3-.011a1.161,1.161,0,0,1,.843.253,1.149,1.149,0,0,1,.25.83V24.9C4.162,24.938,4.146,24.956,4.113,24.956Z"
      transform="translate(-0.515)" />
    <path class="cls-5"
      d="M6.332,24.121a.953.953,0,0,1-.094.453.7.7,0,0,1-.244.267.961.961,0,0,1-.349.126A2.463,2.463,0,0,1,5.239,25c-.14,0-.27-.006-.39-.016a2.234,2.234,0,0,1-.319-.05c-.022-.007-.031-.02-.028-.038l.022-.61c0-.007.006-.015.017-.022a.04.04,0,0,1,.033-.006c.088.019.175.033.261.044a1.969,1.969,0,0,0,.25.017.485.485,0,0,0,.239-.047A.183.183,0,0,0,5.4,24.1.344.344,0,0,0,5.39,24a.26.26,0,0,0-.055-.088.777.777,0,0,0-.121-.1l-.206-.143a2.011,2.011,0,0,1-.245-.187A.826.826,0,0,1,4.61,23.3a.639.639,0,0,1-.08-.209,1.409,1.409,0,0,1-.022-.272.914.914,0,0,1,.08-.409.662.662,0,0,1,.217-.258.879.879,0,0,1,.321-.137,1.761,1.761,0,0,1,.393-.042A3.945,3.945,0,0,1,5.925,22a3.582,3.582,0,0,1,.357.055c.015,0,.022.017.022.039l-.049.615a.025.025,0,0,1-.009.019q-.008.009-.024,0c-.088-.018-.171-.033-.25-.044a1.734,1.734,0,0,0-.239-.016.418.418,0,0,0-.217.043.169.169,0,0,0-.069.154.253.253,0,0,0,.085.193,2.965,2.965,0,0,0,.289.214,2.467,2.467,0,0,1,.266.2.717.717,0,0,1,.154.187.671.671,0,0,1,.071.209A1.5,1.5,0,0,1,6.332,24.121Z"
      transform="translate(-0.515)" />
    <path class="cls-5"
      d="M7.924,24.945a.849.849,0,0,1-.2.044C7.648,25,7.569,25,7.485,25a.748.748,0,0,1-.494-.14.634.634,0,0,1-.165-.5V22.72a.029.029,0,0,0-.033-.033h-.2a.048.048,0,0,1-.055-.054v-.561a.049.049,0,0,1,.055-.055h.2a.029.029,0,0,0,.033-.033V21.3a.048.048,0,0,1,.055-.055h.758a.049.049,0,0,1,.055.055v.686a.029.029,0,0,0,.033.033H8a.049.049,0,0,1,.055.055v.561A.048.048,0,0,1,8,22.687H7.727a.029.029,0,0,0-.033.033v1.319c0,.1.014.162.044.189a.22.22,0,0,0,.154.041h.054a.08.08,0,0,1,.039.009C8,24.283,8,24.3,8,24.319l-.016.555C7.985,24.907,7.965,24.93,7.924,24.945Z"
      transform="translate(-0.515)" />
    <path class="cls-5"
      d="M9.177,22.7a2.862,2.862,0,0,0-.3.019c-.119.013-.224.029-.316.047a.086.086,0,0,1-.052,0,.029.029,0,0,1-.025-.033l-.038-.593c0-.04.014-.064.044-.071A2.934,2.934,0,0,1,8.875,22a3.615,3.615,0,0,1,.467-.031,2.463,2.463,0,0,1,.461.039.911.911,0,0,1,.346.134.617.617,0,0,1,.217.259,1.006,1.006,0,0,1,.074.414v2.005a.115.115,0,0,1-.011.05.081.081,0,0,1-.055.033,4.026,4.026,0,0,1-.447.068A4.686,4.686,0,0,1,9.44,25a3.407,3.407,0,0,1-.552-.038.913.913,0,0,1-.362-.135.534.534,0,0,1-.2-.264,1.273,1.273,0,0,1-.06-.425A1.81,1.81,0,0,1,8.3,23.75a.583.583,0,0,1,.129-.269.614.614,0,0,1,.255-.167A1.874,1.874,0,0,1,9.1,23.22l.445-.055q.033,0,.033-.033v-.115a.294.294,0,0,0-.088-.25A.566.566,0,0,0,9.177,22.7Zm.4,1c0-.025-.011-.038-.033-.038H9.4a.768.768,0,0,0-.157.013.2.2,0,0,0-.1.055.255.255,0,0,0-.055.118.987.987,0,0,0-.016.2.467.467,0,0,0,.069.313.329.329,0,0,0,.233.066c.033,0,.066,0,.1-.005a.509.509,0,0,0,.088-.017c.014,0,.022-.014.022-.033Z"
      transform="translate(-0.515)" />
    <path class="cls-5"
      d="M10.946,21.276A.048.048,0,0,1,11,21.221h.775a.048.048,0,0,1,.055.055V24.1a.029.029,0,0,0,.033.033h.654a.048.048,0,0,1,.054.055V24.9a.048.048,0,0,1-.054.055H11a.048.048,0,0,1-.054-.055Z"
      transform="translate(-0.515)" />
    <path class="cls-5"
      d="M12.939,21.649a.049.049,0,0,1-.055-.055v-.626a.049.049,0,0,1,.055-.055h.78a.049.049,0,0,1,.055.055v.626a.048.048,0,0,1-.055.055Zm.006,3.307a.048.048,0,0,1-.055-.055V22.072a.049.049,0,0,1,.055-.055h.769a.049.049,0,0,1,.055.055V24.9a.049.049,0,0,1-.055.055Z"
      transform="translate(-0.515)" />
    <path class="cls-5"
      d="M16.482,24.956H15.7c-.033,0-.049-.018-.049-.055V23.006a.607.607,0,0,0-.047-.277c-.031-.057-.105-.085-.222-.085a1.13,1.13,0,0,0-.124.005.384.384,0,0,0-.085.017c-.026,0-.039.02-.039.049V24.9c0,.037-.016.055-.049.055h-.774c-.03,0-.044-.018-.044-.055V22.133a.051.051,0,0,1,.044-.055q.093-.016.228-.036t.285-.033l.31-.025c.107-.007.207-.011.3-.011a1.161,1.161,0,0,1,.843.253,1.154,1.154,0,0,1,.25.83V24.9C16.532,24.938,16.515,24.956,16.482,24.956Z"
      transform="translate(-0.515)" />
    <path class="cls-5"
      d="M19.415,24.9c.008.037-.011.055-.055.055h-.829a.075.075,0,0,1-.055-.016.137.137,0,0,1-.022-.028q-.033-.1-.093-.255l-.127-.327q-.066-.171-.129-.324l-.1-.247a.3.3,0,0,0-.022-.044c-.008-.011-.026-.017-.055-.017s-.061.019-.061.055V24.9a.048.048,0,0,1-.055.055h-.758c-.032,0-.049-.018-.049-.055V20.974c0-.037.017-.055.049-.055h.758a.048.048,0,0,1,.055.055v2.054a.067.067,0,0,0,.011.041c.008.009.028.014.061.014s.048-.006.057-.019l.025-.036c.033-.073.069-.153.107-.239s.076-.171.113-.255.071-.167.1-.247.062-.154.088-.22a.069.069,0,0,1,.072-.05h.813a.078.078,0,0,1,.043.011q.017.012.006.039c-.022.051-.058.127-.107.228l-.165.332L18.91,23q-.093.188-.165.324a.274.274,0,0,0-.022.077.1.1,0,0,0,.009.033.278.278,0,0,0,.019.044c.036.077.088.184.154.321l.2.423.19.407C19.353,24.75,19.393,24.843,19.415,24.9Z"
      transform="translate(-0.515)" />
    <path class="cls-5"
      d="M20.9,25a1.28,1.28,0,0,1-.988-.346,1.681,1.681,0,0,1-.319-1.154,2.557,2.557,0,0,1,.088-.727,1.22,1.22,0,0,1,.245-.47.893.893,0,0,1,.376-.253,1.456,1.456,0,0,1,.483-.077,1.416,1.416,0,0,1,.47.069.731.731,0,0,1,.321.217.956.956,0,0,1,.187.385,2.342,2.342,0,0,1,.06.571c0,.066,0,.143-.005.23a1.821,1.821,0,0,1-.022.226.09.09,0,0,1-.036.063.189.189,0,0,1-.085.014H20.486c-.021,0-.032.007-.032.022a.618.618,0,0,0,.115.425.548.548,0,0,0,.412.124,2,2,0,0,0,.351-.028c.107-.018.207-.038.3-.06a.078.078,0,0,1,.046-.006.039.039,0,0,1,.025.033l.06.55a.052.052,0,0,1-.033.055,1.3,1.3,0,0,1-.346.1A2.978,2.978,0,0,1,20.9,25Zm.127-1.78a.06.06,0,0,0,.044-.016c.011-.011.016-.042.016-.094,0-.076,0-.147-.008-.211a.487.487,0,0,0-.041-.165.249.249,0,0,0-.1-.107.317.317,0,0,0-.168-.038.284.284,0,0,0-.288.181.57.57,0,0,0-.044.189c-.006.072-.008.148-.008.228a.029.029,0,0,0,.033.033Z"
      transform="translate(-0.515)" />
    <path class="cls-5"
      d="M24.485,24.819a.072.072,0,0,1-.049.077A3.534,3.534,0,0,1,24,24.97a5.046,5.046,0,0,1-.574.03,2.105,2.105,0,0,1-.632-.08.824.824,0,0,1-.392-.255,1.013,1.013,0,0,1-.2-.461,3.8,3.8,0,0,1-.055-.693,2.085,2.085,0,0,1,.256-1.167.937.937,0,0,1,.832-.371,1.607,1.607,0,0,1,.2.011c.057.008.105.013.145.017s.039-.015.039-.044v-.983a.048.048,0,0,1,.055-.055h.763a.048.048,0,0,1,.055.055Zm-.873-2.126c0-.029-.009-.048-.028-.055a.239.239,0,0,0-.068-.014c-.028,0-.054,0-.08,0a.4.4,0,0,0-.192.041.265.265,0,0,0-.118.145,1.033,1.033,0,0,0-.058.28c-.011.118-.016.264-.016.44a3.666,3.666,0,0,0,.019.42.912.912,0,0,0,.06.253.245.245,0,0,0,.107.123.367.367,0,0,0,.165.033.581.581,0,0,0,.181-.022.046.046,0,0,0,.028-.049Z"
      transform="translate(-0.515)" />
  </g>
</svg>