<svg id="Layer_1" data-name="Layer 1" xmlns="http://www.w3.org/2000/svg" viewBox="0 0 25 4.262">
  <defs>
    <style>
      .cls-1 {
        fill: #f37dd4;
      }
    </style>
  </defs>
  <g>
    <path class="cls-1"
      d="M.057,1.47A.05.05,0,0,1,0,1.413V.759A.05.05,0,0,1,.057.7H.871A.05.05,0,0,1,.928.759v.654a.05.05,0,0,1-.057.057ZM.063,4.919a.051.051,0,0,1-.057-.058V1.911a.05.05,0,0,1,.057-.057h.8a.05.05,0,0,1,.057.057v2.95a.051.051,0,0,1-.057.058Z"
      transform="translate(0 -0.702)" />
    <path class="cls-1"
      d="M3.752,4.919H2.939c-.035,0-.052-.019-.052-.058V2.885A.641.641,0,0,0,2.839,2.6c-.033-.06-.11-.089-.232-.089a1.19,1.19,0,0,0-.129.006.36.36,0,0,0-.089.017.044.044,0,0,0-.04.051v2.28c0,.039-.017.058-.052.058H1.489c-.03,0-.045-.019-.045-.058V1.974a.053.053,0,0,1,.045-.057c.065-.012.145-.024.238-.038s.193-.024.3-.034l.324-.026c.111-.007.215-.011.315-.011a1.211,1.211,0,0,1,.879.263,1.2,1.2,0,0,1,.261.865V4.861C3.8,4.9,3.787,4.919,3.752,4.919Z"
      transform="translate(0 -0.702)" />
    <path class="cls-1"
      d="M6.067,4.048a.988.988,0,0,1-.1.472.717.717,0,0,1-.255.278,1,1,0,0,1-.363.132,2.572,2.572,0,0,1-.424.034c-.146,0-.281-.005-.407-.017A2.264,2.264,0,0,1,4.188,4.9c-.023-.008-.033-.021-.029-.04l.023-.636A.03.03,0,0,1,4.2,4.2a.036.036,0,0,1,.034-.006c.092.019.183.034.273.046a2.126,2.126,0,0,0,.26.017.5.5,0,0,0,.249-.049.189.189,0,0,0,.084-.18.328.328,0,0,0-.015-.1.232.232,0,0,0-.057-.092.851.851,0,0,0-.126-.1l-.215-.149a2.2,2.2,0,0,1-.255-.195.85.85,0,0,1-.16-.192.656.656,0,0,1-.083-.217,1.454,1.454,0,0,1-.023-.284.959.959,0,0,1,.083-.427.7.7,0,0,1,.226-.269.914.914,0,0,1,.335-.143,1.855,1.855,0,0,1,.41-.043,4.03,4.03,0,0,1,.424.023,3.6,3.6,0,0,1,.372.057c.015,0,.023.017.023.04l-.052.642a.026.026,0,0,1-.008.02.023.023,0,0,1-.026,0c-.092-.019-.178-.035-.261-.046a1.717,1.717,0,0,0-.249-.017.427.427,0,0,0-.226.046.174.174,0,0,0-.072.16.258.258,0,0,0,.089.2,2.976,2.976,0,0,0,.3.224,2.591,2.591,0,0,1,.278.209.739.739,0,0,1,.16.195.725.725,0,0,1,.075.217A1.651,1.651,0,0,1,6.067,4.048Z"
      transform="translate(0 -0.702)" />
    <path class="cls-1"
      d="M7.728,4.907a.926.926,0,0,1-.212.046,2.382,2.382,0,0,1-.246.011.779.779,0,0,1-.516-.146.659.659,0,0,1-.172-.524V2.587a.03.03,0,0,0-.034-.034H6.336A.051.051,0,0,1,6.279,2.5V1.911a.05.05,0,0,1,.057-.057h.212a.031.031,0,0,0,.034-.035V1.1a.05.05,0,0,1,.057-.057H7.43a.05.05,0,0,1,.057.057v.716a.031.031,0,0,0,.035.035h.286a.05.05,0,0,1,.057.057V2.5a.051.051,0,0,1-.057.058H7.522a.031.031,0,0,0-.035.034V3.962a.292.292,0,0,0,.046.2.239.239,0,0,0,.161.043h.057a.084.084,0,0,1,.04.008c.011.006.017.02.017.043l-.017.579C7.791,4.867,7.77,4.892,7.728,4.907Z"
      transform="translate(0 -0.702)" />
    <path class="cls-1"
      d="M9.034,2.57a3.137,3.137,0,0,0-.318.02,3.284,3.284,0,0,0-.329.049.1.1,0,0,1-.055.005.03.03,0,0,1-.025-.034l-.041-.619c0-.042.016-.067.046-.074a2.988,2.988,0,0,1,.407-.078,3.746,3.746,0,0,1,.487-.031,2.581,2.581,0,0,1,.481.04.977.977,0,0,1,.361.14.635.635,0,0,1,.226.27,1.03,1.03,0,0,1,.078.432V4.781a.114.114,0,0,1-.012.052c-.007.015-.026.026-.057.034a4.306,4.306,0,0,1-.467.072c-.17.017-.339.025-.507.025a3.442,3.442,0,0,1-.576-.04.942.942,0,0,1-.378-.14.551.551,0,0,1-.209-.275,1.323,1.323,0,0,1-.063-.444,1.892,1.892,0,0,1,.037-.4.631.631,0,0,1,.135-.281.65.65,0,0,1,.266-.174,2.013,2.013,0,0,1,.433-.1l.464-.057c.023,0,.034-.015.034-.034V2.9a.3.3,0,0,0-.091-.26A.59.59,0,0,0,9.034,2.57Zm.418,1.048c0-.026-.011-.04-.034-.04H9.263a.824.824,0,0,0-.163.014.2.2,0,0,0-.106.058.243.243,0,0,0-.057.123.973.973,0,0,0-.017.206.49.49,0,0,0,.071.327.352.352,0,0,0,.244.068c.034,0,.068,0,.1,0a.523.523,0,0,0,.091-.018c.016,0,.023-.015.023-.034Z"
      transform="translate(0 -0.702)" />
    <path class="cls-1"
      d="M10.879,1.08a.05.05,0,0,1,.057-.057h.808a.05.05,0,0,1,.057.057V4.025a.031.031,0,0,0,.035.034h.681a.051.051,0,0,1,.057.058v.744a.051.051,0,0,1-.057.058H10.936a.051.051,0,0,1-.057-.058Z"
      transform="translate(0 -0.702)" />
    <path class="cls-1"
      d="M12.958,1.47a.05.05,0,0,1-.057-.057V.759A.05.05,0,0,1,12.958.7h.814a.05.05,0,0,1,.057.057v.654a.05.05,0,0,1-.057.057Zm.006,3.449a.051.051,0,0,1-.057-.058V1.911a.05.05,0,0,1,.057-.057h.8a.05.05,0,0,1,.057.057v2.95a.051.051,0,0,1-.057.058Z"
      transform="translate(0 -0.702)" />
    <path class="cls-1"
      d="M16.653,4.919H15.84c-.035,0-.052-.019-.052-.058V2.885A.641.641,0,0,0,15.74,2.6c-.033-.06-.11-.089-.232-.089a1.19,1.19,0,0,0-.129.006.36.36,0,0,0-.089.017.044.044,0,0,0-.04.051v2.28c0,.039-.017.058-.052.058H14.39c-.03,0-.045-.019-.045-.058V1.974a.053.053,0,0,1,.045-.057c.065-.012.145-.024.238-.038s.193-.024.3-.034l.324-.026c.11-.007.215-.011.315-.011a1.211,1.211,0,0,1,.879.263,1.2,1.2,0,0,1,.261.865V4.861C16.7,4.9,16.688,4.919,16.653,4.919Z"
      transform="translate(0 -0.702)" />
    <path class="cls-1"
      d="M19.712,4.861c.008.039-.011.058-.057.058H18.79a.075.075,0,0,1-.057-.018.117.117,0,0,1-.023-.028c-.023-.069-.056-.158-.1-.267s-.085-.222-.131-.341-.091-.231-.135-.338L18.24,3.67a.244.244,0,0,0-.023-.046c-.008-.012-.027-.017-.057-.017s-.063.019-.063.057v1.2a.051.051,0,0,1-.057.058h-.791c-.034,0-.052-.019-.052-.058V.765c0-.038.018-.057.052-.057h.791A.05.05,0,0,1,18.1.765V2.908a.074.074,0,0,0,.011.043c.008.009.029.014.063.014a.074.074,0,0,0,.061-.02l.025-.037.112-.249q.06-.135.117-.267c.039-.088.075-.174.109-.258s.065-.16.092-.229a.07.07,0,0,1,.074-.051h.848a.087.087,0,0,1,.046.011c.012.008.013.021.006.04-.023.054-.06.133-.112.238s-.109.221-.172.347l-.192.383c-.065.13-.122.243-.172.338a.265.265,0,0,0-.022.081A.1.1,0,0,0,19,3.326c.006.015.013.031.02.046l.161.335q.1.215.209.441l.2.424C19.647,4.7,19.689,4.8,19.712,4.861Z"
      transform="translate(0 -0.702)" />
    <path class="cls-1"
      d="M21.259,4.964A1.335,1.335,0,0,1,20.228,4.6,1.752,1.752,0,0,1,19.9,3.4a2.7,2.7,0,0,1,.091-.759,1.269,1.269,0,0,1,.255-.489.929.929,0,0,1,.393-.264,1.527,1.527,0,0,1,.5-.08,1.5,1.5,0,0,1,.49.071.773.773,0,0,1,.335.227,1,1,0,0,1,.2.4,2.436,2.436,0,0,1,.063.6c0,.068,0,.149-.006.24a1.925,1.925,0,0,1-.023.235.1.1,0,0,1-.037.066.206.206,0,0,1-.089.014H20.829c-.022,0-.034.008-.034.023a.648.648,0,0,0,.12.444.577.577,0,0,0,.43.129,2.077,2.077,0,0,0,.367-.029q.165-.028.315-.063a.079.079,0,0,1,.049,0c.013,0,.021.015.025.034l.063.573c0,.031-.011.05-.034.057a1.31,1.31,0,0,1-.361.1A3.007,3.007,0,0,1,21.259,4.964Zm.132-1.856a.061.061,0,0,0,.046-.017.167.167,0,0,0,.017-.1c0-.08,0-.154-.009-.221A.477.477,0,0,0,21.4,2.6a.256.256,0,0,0-.1-.111.331.331,0,0,0-.175-.041.32.32,0,0,0-.191.052.312.312,0,0,0-.109.138.613.613,0,0,0-.046.2c-.006.075-.009.154-.009.238a.031.031,0,0,0,.035.034Z"
      transform="translate(0 -0.702)" />
    <path class="cls-1"
      d="M25,4.775a.076.076,0,0,1-.052.081,3.764,3.764,0,0,1-.455.077,5.234,5.234,0,0,1-.6.031,2.173,2.173,0,0,1-.659-.083.858.858,0,0,1-.409-.266,1.053,1.053,0,0,1-.209-.481,3.9,3.9,0,0,1-.058-.722,2.175,2.175,0,0,1,.267-1.217.979.979,0,0,1,.868-.387,1.737,1.737,0,0,1,.2.011c.059.008.11.014.152.018s.04-.016.04-.046V.765a.05.05,0,0,1,.057-.057h.8A.05.05,0,0,1,25,.765Zm-.911-2.217A.055.055,0,0,0,24.06,2.5a.223.223,0,0,0-.071-.014l-.083,0a.421.421,0,0,0-.2.043.279.279,0,0,0-.123.152,1.061,1.061,0,0,0-.06.292c-.011.122-.017.275-.017.458a3.7,3.7,0,0,0,.02.438.9.9,0,0,0,.063.264.25.25,0,0,0,.112.129.378.378,0,0,0,.171.034.591.591,0,0,0,.189-.023.049.049,0,0,0,.029-.051Z"
      transform="translate(0 -0.702)" />
  </g>
</svg>